<?xml version="1.0" encoding="UTF-8"?>
<!-- Generated by Pixelmator Pro 3.7 -->
<svg width="48" height="48" viewBox="0 0 48 48" xmlns="http://www.w3.org/2000/svg">
    <path id="Path" fill="none" stroke="none" d="M 0 0 L 48 0 L 48 48 L 0 48 Z"/>
    <path id="path1" fill="#ffffff" stroke="none" d="M 10 32 L 16 32 L 16 38 L 20 38 L 20 28 L 10 28 L 10 32 Z M 16 16 L 10 16 L 10 20 L 20 20 L 20 10 L 16 10 L 16 16 Z M 28 38 L 32 38 L 32 32 L 38 32 L 38 28 L 28 28 L 28 38 Z M 32 16 L 32 10 L 28 10 L 28 20 L 38 20 L 38 16 L 32 16 Z"/>
</svg>
