<?xml version="1.0" encoding="UTF-8"?>
<!-- Generated by Pixelmator Pro 3.7 -->
<svg width="48" height="48" viewBox="0 0 48 48" xmlns="http://www.w3.org/2000/svg">
    <path id="Path" fill="none" stroke="none" d="M 0 0 L 48 0 L 48 48 L 0 48 Z"/>
    <path id="path1" fill="#ffffff" stroke="none" d="M 14 28 L 10 28 L 10 38 L 20 38 L 20 34 L 14 34 L 14 28 Z M 10 20 L 14 20 L 14 14 L 20 14 L 20 10 L 10 10 L 10 20 Z M 34 34 L 28 34 L 28 38 L 38 38 L 38 28 L 34 28 L 34 34 Z M 28 10 L 28 14 L 34 14 L 34 20 L 38 20 L 38 10 L 28 10 Z"/>
</svg>
