<?xml version="1.0" encoding="UTF-8"?>
<!-- Generated by Pixelmator Pro 3.7 -->
<svg width="48" height="48" viewBox="0 0 48 48" xmlns="http://www.w3.org/2000/svg">
    <path id="Path" fill="none" stroke="none" d="M 0 0 L 48 0 L 48 48 L 0 48 Z"/>
    <path id="path1" fill="#ffffff" stroke="none" d="M 20 16 L 20 32 L 30 24 L 20 16 Z M 38 6 L 10 6 C 7.79 6 6 7.790001 6 10 L 6 38 C 6 40.209999 7.79 42 10 42 L 38 42 C 40.209999 42 42 40.209999 42 38 L 42 10 C 42 7.790001 40.209999 6 38 6 Z M 38 38 L 10 38 L 10 10 L 38 10 L 38 38 Z"/>
</svg>
